<?xml version="1.0" encoding="UTF-8"?>
<svg id="_레이어_1" data-name="레이어 1" xmlns="http://www.w3.org/2000/svg" viewBox="0 0 313.55 138.53">
  <defs>
    <style>
      .cls-1, .cls-2, .cls-3, .cls-4, .cls-5 {
        stroke-width: 0px;
      }

      .cls-2 {
        fill: #79e767;
      }

      .cls-3 {
        fill: #2fbdff;
      }

      .cls-4 {
        fill: #fff;
      }

      .cls-5 {
        fill: #ff444f;
      }
    </style>
  </defs>
  <g>
    <path class="cls-4" d="m48.1,132.86c-24.07,0-43.66-25-43.66-55.73v-15.73C4.44,30.67,24.03,5.67,48.1,5.67h217.34c24.07,0,43.66,25,43.66,55.73v15.73c0,30.73-19.58,55.73-43.66,55.73H48.1Z"/>
    <path class="cls-1" d="m265.44,11.34c21.62,0,39.21,22.46,39.21,50.06v15.73c0,27.6-17.59,50.06-39.21,50.06H48.1c-21.62,0-39.21-22.46-39.21-50.06v-15.73c0-27.6,17.59-50.06,39.21-50.06h217.34m0-11.34H48.1C21.54,0,0,27.49,0,61.4v15.73c0,33.91,21.54,61.4,48.1,61.4h217.34c26.57,0,48.1-27.49,48.1-61.4v-15.73c0-33.91-21.54-61.4-48.1-61.4h0Z"/>
  </g>
  <g>
    <path class="cls-1" d="m80.7,102.52c-1.92,7.33-7.38,12.79-17.18,12.79-12.92,0-19.43-9.8-19.43-22.01s6.52-22.34,19.65-22.34c10.19,0,15.71,5.81,16.99,13.03h-5.73c-1.55-4.7-4.66-8.25-11.49-8.25-9.53,0-13.42,8.66-13.42,17.4s3.7,17.41,13.67,17.41c6.66,0,9.58-3.82,11.2-8.01h5.75Z"/>
    <path class="cls-1" d="m84.25,91.84c0-4.4-.04-6.88-.06-8.55h5.33c.08.88.17,3.35.17,6.43,1.65-4.26,5.4-7.01,10.6-7.17v5.42c-6.46.19-10.6,3.56-10.6,11.52v15.28h-5.43v-22.93Z"/>
    <path class="cls-1" d="m105.75,100.02c.04,6.4,3.26,10.95,8.61,10.95,4.98,0,6.59-2.56,7.6-4.87h5.47c-1.24,4.03-4.62,9.41-13.24,9.41-9.9,0-13.93-8.04-13.93-16.15,0-9.36,4.72-16.82,14.28-16.82,10.15,0,13.48,8.15,13.48,14.86,0,.96,0,1.76-.08,2.61h-22.19Zm16.76-3.83c-.06-5.18-2.67-9.34-8.05-9.34s-7.97,3.85-8.52,9.34h16.57Z"/>
    <path class="cls-1" d="m134.68,83.29c3.91,14.76,6.14,23.2,6.68,26.44h.08c.56-2.92,2.79-10.78,7.26-26.44h5.33c4.92,17.82,6.39,22.99,6.91,25.83h.06c.78-3.37,2.03-8.09,6.95-25.83h5.51l-9.7,31.48h-5.88c-3.07-11.47-6.09-22.11-6.75-25.51h-.06c-.58,3.44-3.39,13.01-6.94,25.51h-6.08l-9.13-31.48h5.75Z"/>
    <path class="cls-1" d="m52.39,53.68l-4.65,12.96h-5.7l15.38-43.19h7.05l16.04,43.19h-6.1l-4.79-12.96h-17.24Zm15.77-4.91c-4.12-11.35-6.38-17.38-7.31-20.68h-.06c-1.06,3.66-3.58,10.97-6.9,20.68h14.28Z"/>
    <path class="cls-1" d="m84.31,21.06h5.43v6.79h-5.43v-6.79Zm0,14.1h5.43v31.48h-5.43v-31.48Z"/>
    <path class="cls-1" d="m122.97,21.06v36.68c0,2.96,0,5.86.06,8.9h-5.22c-.15-.83-.25-3.24-.27-4.47-1.55,3.28-4.74,5.21-9.9,5.21-8.09,0-13.07-6.56-13.07-16.16s5.36-16.81,14.07-16.81c5.57,0,8.05,2.25,8.9,4.02v-17.37h5.43Zm-22.76,30c0,7.6,3.62,11.71,8.56,11.71,7.36,0,8.98-5.43,8.98-12.33s-1.46-11.42-8.55-11.42c-5.55,0-8.99,4.4-8.99,12.03Z"/>
    <path class="cls-1" d="m133.25,51.88c.04,6.4,3.26,10.95,8.61,10.95,4.98,0,6.59-2.56,7.6-4.87h5.47c-1.24,4.03-4.62,9.41-13.24,9.41-9.9,0-13.93-8.04-13.93-16.15,0-9.36,4.72-16.82,14.28-16.82,10.15,0,13.48,8.15,13.48,14.86,0,.96,0,1.76-.08,2.61h-22.19Zm16.76-3.83c-.06-5.18-2.67-9.34-8.05-9.34s-7.97,3.85-8.52,9.34h16.57Z"/>
    <path class="cls-1" d="m160.31,43.09c0-2.73,0-5.49-.06-7.93h5.28c.15.93.23,4.24.21,5.17,1.26-2.7,3.82-5.92,9.91-5.92s10.52,3.61,10.52,11.98v20.25h-5.43v-19.55c0-4.76-1.86-7.96-6.66-7.96-5.94,0-8.33,4.52-8.33,10.85v16.67h-5.43v-23.55Z"/>
    <path class="cls-1" d="m188.77,35.16h5.44v-9.29h5.43v9.29h6.95v4.43h-6.95v18.44c0,3.06.75,4.63,3.59,4.63.76,0,1.88-.04,2.74-.26v4.09c-1.34.5-3.2.58-4.71.58-4.9,0-7.06-2.54-7.06-7.77v-19.71h-5.44v-4.43Z"/>
    <path class="cls-1" d="m213.2,51.88c.04,6.4,3.26,10.95,8.61,10.95,4.98,0,6.59-2.56,7.6-4.87h5.47c-1.24,4.03-4.62,9.41-13.24,9.41-9.9,0-13.93-8.04-13.93-16.15,0-9.36,4.72-16.82,14.28-16.82,10.15,0,13.48,8.15,13.48,14.86,0,.96,0,1.76-.08,2.61h-22.19Zm16.76-3.83c-.06-5.18-2.67-9.34-8.05-9.34s-7.97,3.85-8.52,9.34h16.57Z"/>
    <path class="cls-1" d="m236.45,35.16h5.44v-9.29h5.43v9.29h6.95v4.43h-6.95v18.44c0,3.06.75,4.63,3.59,4.63.76,0,1.88-.04,2.74-.26v4.09c-1.34.5-3.2.58-4.71.58-4.9,0-7.06-2.54-7.06-7.77v-19.71h-5.44v-4.43Z"/>
    <path class="cls-1" d="m257.8,21.06h5.43v6.79h-5.43v-6.79Zm0,14.1h5.43v31.48h-5.43v-31.48Z"/>
  </g>
  <g>
    <path class="cls-5" d="m235.04,94.94c1-1.54,1.6-3.37,1.61-5.35.02-3.43-1.69-6.48-4.32-8.29-.05.03-.09.05-.14.08.84,1.48,1.32,3.19,1.31,5.01-.01,1.92-.58,3.7-1.52,5.21-4.54-3.48-10.88-3.53-15.47-.1-.93-1.53-1.47-3.31-1.45-5.23.01-1.82.51-3.53,1.37-4.99-.05-.03-.09-.06-.14-.08-2.65,1.78-4.4,4.8-4.43,8.23-.01,1.98.56,3.81,1.54,5.37-3.22,4.95-2.71,11.63,1.6,16.02,4.98,5.07,13.12,5.14,18.18.16,4.4-4.32,5.03-11.03,1.85-16.04Z"/>
    <path class="cls-2" d="m206.95,87.03l-8.41,2.72c-3.14-1.33-6.7-1.35-9.86-.06l-8.38-2.83,1.78,8.9c-2.44,4.79-1.7,10.8,2.28,14.84,4.98,5.07,13.12,5.14,18.18.16,4.06-3.99,4.91-10.02,2.51-14.86l1.9-8.87Z"/>
    <path class="cls-3" d="m263.99,94.17c.1-.54.17-1.09.17-1.66.03-3.84-2.14-7.17-5.34-8.8.63,1.31.99,2.79.97,4.34,0,.88-.14,1.73-.36,2.54-3.4-1.6-7.36-1.63-10.78-.07-.21-.81-.33-1.66-.33-2.54,0-1.55.37-3.02,1.02-4.33-3.22,1.59-5.44,4.89-5.45,8.73,0,.57.06,1.12.15,1.66-4.14,5.01-3.9,12.44.75,17.18,4.98,5.07,13.12,5.14,18.18.16,4.76-4.67,5.11-12.13,1.02-17.22Z"/>
    <circle class="cls-4" cx="253.96" cy="102.38" r="4.8"/>
    <path class="cls-4" d="m225.28,97.86l.2.25.31-.09c.86-.24,1.71.39,1.73,1.28v.32s.31.11.31.11c.83.31,1.15,1.32.65,2.05l-.18.26.18.27c.49.74.16,1.74-.68,2.04l-.3.11v.32c-.05.89-.91,1.51-1.76,1.25l-.31-.09-.2.25c-.55.7-1.61.69-2.15-.01l-.2-.25-.31.09c-.86.24-1.71-.39-1.73-1.28v-.32s-.31-.11-.31-.11c-.83-.31-1.15-1.32-.65-2.05l.18-.26-.18-.27c-.49-.74-.16-1.74.68-2.04l.3-.11v-.32c.05-.89.91-1.51,1.76-1.25l.31.09.2-.25c.55-.7,1.61-.69,2.15.01Z"/>
    <polygon class="cls-4" points="193.56 96.04 194.83 97.68 196.82 97.12 196.88 99.19 198.82 99.91 197.65 101.62 198.8 103.34 196.84 104.04 196.76 106.11 194.77 105.52 193.49 107.14 192.23 105.5 190.23 106.06 190.18 103.99 188.24 103.27 189.41 101.57 188.26 99.84 190.21 99.15 190.29 97.08 192.28 97.67 193.56 96.04"/>
  </g>
</svg>