<svg width="100" height="100" viewBox="0 0 100 100" fill="none" xmlns="http://www.w3.org/2000/svg">
<path d="M22.9167 50.0937V8.33325L56.25 8.33348C56.25 8.33348 62.4106 8.82965 64.5833 9.52487C66.7561 10.2201 64.4312 9.47728 64.4312 9.47728C71.2972 11.6211 76.2511 15.6769 79.5248 21.8766C81.1182 24.8895 81.9293 27.6127 82.277 30.9733C82.9433 37.6075 81.0023 44.1838 76.8885 49.1667L76.2222 49.9779L77.7866 52.2086C79.7565 55.0187 80.307 56.1775 81.263 59.1904C83.9862 67.8526 81.8714 77.0941 75.7007 83.6124C72.7747 86.6543 69.7907 88.7112 66.5171 89.899C61.6501 91.6662 61.5052 91.6662 41.3129 91.6662H22.9167L22.9167 50.0937ZM43.3118 87.0599C42.211 86.2777 37.9813 82.3088 33.9254 78.224C29.8696 74.1391 26.4511 70.8076 26.3352 70.8076C26.1903 70.8076 26.1034 74.7765 26.1034 79.6435V88.4794H35.7216H45.3108L43.3118 87.0599ZM64.1995 87.4945C67.589 86.4226 69.9356 84.9161 72.9195 81.9612C75.1503 79.7594 75.7586 78.9482 76.8885 76.6016C78.7716 72.7775 79.2351 70.8076 79.2351 66.6069C79.2351 62.4641 78.5977 59.7988 76.7147 56.2065C75.6428 54.1206 74.6578 53.0198 67.6759 45.8351C63.3883 41.4316 59.3324 37.3468 58.6661 36.7963L57.4783 35.7824L53.1618 40.1279L48.8452 44.4445L50.5834 46.2407C51.5394 47.2547 55.2766 51.0787 58.8979 54.729C66.4591 62.4062 66.7489 62.8407 66.7778 66.6069C66.7778 68.3741 66.633 69.2432 66.1694 70.2861C65.3003 72.1981 63.4173 74.1391 61.4762 75.0662C60.0857 75.7615 59.5063 75.8774 57.5363 75.8484C53.7701 75.8194 53.5094 75.6456 44.0651 66.2592C39.5167 61.7398 35.6636 58.0606 35.4898 58.0606C35.1132 58.0606 26.9725 66.2882 26.9725 66.6648C26.9725 66.8097 30.9125 70.8365 35.7506 75.6166C44.6734 84.5105 46.064 85.6404 49.5694 87.0309C52.4375 88.1897 54.4075 88.4794 58.2605 88.3636C61.1576 88.2767 62.3454 88.1028 64.1995 87.4945ZM59.9408 72.372C63.0696 71.0683 64.605 67.3311 63.3304 64.2023C63.0117 63.4781 58.8979 59.1325 50.2068 50.4704C43.2539 43.4885 37.4598 37.7813 37.3439 37.7813C37.1991 37.7813 37.1122 41.6634 37.1122 46.4145V55.0187L45.6005 63.4781C50.7572 68.6348 54.4654 72.1112 55.0738 72.372C56.4064 72.9514 58.5792 72.9514 59.9408 72.372ZM30.2172 58.7269L33.8675 55.0187L34.0703 47.1388C34.1862 42.8222 34.1862 38.8532 34.0703 38.3318L33.8675 37.4047L29.9855 41.2867L26.1034 45.1688V53.773C26.1034 58.5241 26.1903 62.4062 26.3352 62.4062C26.4511 62.4062 28.1893 60.7548 30.2172 58.7269ZM75.5848 45.7482C77.6707 42.6194 78.7716 39.5775 79.2641 35.7824L79.4668 34.218L69.53 24.2811C64.0546 18.8057 59.4773 14.3153 59.3614 14.3153C59.2166 14.3153 59.1296 18.516 59.1296 23.6438V33.0012L66.4302 40.3017C70.4571 44.3286 73.9045 47.6313 74.0494 47.6313C74.2232 47.6313 74.9185 46.7911 75.5848 45.7482ZM30.8835 36.0431C33.2591 33.6675 35.345 31.6975 35.5188 31.6975C35.6926 31.6975 37.8654 33.6675 40.3858 36.0721L44.9342 40.4466V30.4808V20.544L49.3377 16.1405L53.7701 11.708H39.9223H26.1034V26.0483C26.1034 33.9283 26.1903 40.3887 26.3352 40.3887C26.4511 40.3887 28.508 38.4476 30.8835 36.0431ZM52.2347 36.7094L55.9429 33.0012V23.441V13.8808L52.0319 17.7918L48.1209 21.7028V31.0312C48.1209 36.188 48.2078 40.3887 48.3237 40.3887C48.4396 40.3887 50.2068 38.7373 52.2347 36.7094ZM78.2501 26.4539C76.5408 21.3262 72.6009 16.6909 67.8208 14.1994C65.8508 13.1565 62.3164 11.9108 62.0846 12.1426C61.9977 12.2005 65.7059 16.0536 70.3122 20.6888C75.2372 25.6717 78.7136 28.9454 78.7716 28.7136C78.8295 28.4818 78.5688 27.4679 78.2501 26.4539Z" fill="#445AD6"/>
</svg>
