<?xml version="1.0" encoding="UTF-8"?>
<svg id="_레이어_1" data-name="레이어 1" xmlns="http://www.w3.org/2000/svg" viewBox="0 0 246.8 284.99">
  <defs>
    <style>
      .cls-1 {
        fill: #5ca0a5;
      }

      .cls-1, .cls-2, .cls-3, .cls-4, .cls-5, .cls-6 {
        stroke-width: 0px;
      }

      .cls-2 {
        fill: #5da0a5;
      }

      .cls-3 {
        fill: #2d6973;
      }

      .cls-4 {
        fill: #2e6c77;
      }

      .cls-5 {
        fill: #1b515a;
      }

      .cls-6 {
        fill: #1a4f59;
      }

      .cls-7 {
        fill: none;
        stroke: #1e1e1e;
        stroke-miterlimit: 10;
        stroke-width: .25px;
      }
    </style>
  </defs>
  <g>
    <polygon class="cls-1" points="123.4 .15 246.5 71.21 203.39 96.19 123.4 50 123.27 50.06 123.27 .22 123.4 .15"/>
    <polygon class="cls-4" points="203.25 188.95 246.3 213.89 123.4 284.84 123.27 284.77 123.27 234.99 123.4 235.06 203.25 188.95"/>
    <polygon class="cls-4" points="246.3 213.89 203.25 188.95 203.52 188.79 203.52 96.26 203.39 96.19 246.5 71.21 246.68 71.31 246.68 213.66 246.3 213.89"/>
    <polygon class="cls-6" points="123.4 50 203.39 96.19 163.36 119.39 123.38 96.29 123.27 96.35 123.27 50.06 123.4 50"/>
    <polygon class="cls-2" points="163.27 165.78 203.25 188.95 123.4 235.06 123.27 234.99 123.27 188.77 123.38 188.83 163.27 165.78"/>
    <polygon class="cls-6" points="163.44 165.68 163.44 119.43 163.38 119.4 163.36 119.39 203.39 96.19 203.52 96.26 203.52 188.79 203.25 188.95 163.27 165.78 163.44 165.68"/>
    <polygon class="cls-5" points="123.27 234.99 123.27 284.77 .38 213.82 43.41 188.89 123.27 234.99"/>
    <polygon class="cls-2" points="83.4 165.74 123.27 188.77 123.27 234.99 43.41 188.89 83.37 165.72 83.4 165.74"/>
    <polygon class="cls-3" points="123.27 50.06 123.27 96.35 83.31 119.43 83.31 119.45 43.27 96.25 123.27 50.06"/>
    <polygon class="cls-1" points="123.27 .22 123.27 50.06 43.27 96.25 .18 71.29 123.27 .22"/>
    <polygon class="cls-3" points="83.37 165.72 43.41 188.89 43.26 188.79 43.26 96.26 43.27 96.25 83.31 119.45 83.31 165.68 83.37 165.72"/>
    <polygon class="cls-5" points="43.26 188.79 43.41 188.89 .38 213.82 .12 213.66 .12 71.31 .18 71.29 43.27 96.25 43.26 96.26 43.26 188.79"/>
  </g>
  <g>
    <polygon class="cls-7" points="246.3 213.89 246.68 213.66 246.68 71.31 246.5 71.21 123.4 .15 123.27 .22 .18 71.29 .12 71.31 .12 213.66 .38 213.82 123.27 284.77 123.4 284.84 246.3 213.89"/>
    <polygon class="cls-7" points="203.25 188.95 203.52 188.79 203.52 96.26 203.39 96.19 123.4 50 123.27 50.06 43.27 96.25 43.26 96.26 43.26 188.79 43.41 188.89 123.27 234.99 123.4 235.06 203.25 188.95"/>
    <polygon class="cls-7" points="163.27 165.78 163.44 165.68 163.44 119.43 163.38 119.4 163.36 119.39 123.38 96.29 123.27 96.35 83.31 119.43 83.31 119.45 83.31 165.68 83.37 165.72 83.4 165.74 123.27 188.77 123.38 188.83 163.27 165.78"/>
  </g>
</svg>